<svg xmlns="http://www.w3.org/2000/svg" xmlns:xlink="http://www.w3.org/1999/xlink" width="64.52" height="87.958" viewBox="0 0 64.52 87.958"><defs><filter id="a" x="0" y="0" width="64.52" height="87.958" filterUnits="userSpaceOnUse"><feOffset dy="3" input="SourceAlpha"/><feGaussianBlur stdDeviation="3" result="b"/><feFlood flood-opacity="0.161"/><feComposite operator="in" in2="b"/><feComposite in="SourceGraphic"/></filter></defs><g transform="matrix(1, 0, 0, 1, 0, 0)" filter="url(#a)"><path d="M23.349,34.97,46.29,12.028a.7.7,0,0,0,0-1.008L35.483.212a.7.7,0,0,0-1.008,0L.212,34.475a.7.7,0,0,0,0,1.008L34.475,69.745a.7.7,0,0,0,1.008,0L46.308,58.92a.7.7,0,0,0,0-1.008Z" transform="translate(55.52 75.96) rotate(180)" fill="#e69405"/></g></svg>