<svg xmlns="http://www.w3.org/2000/svg" xmlns:xlink="http://www.w3.org/1999/xlink" width="183.245" height="219.658" viewBox="0 0 183.245 219.658"><defs><filter id="a" x="0" y="0" width="183.245" height="219.658" filterUnits="userSpaceOnUse"><feOffset dx="3" dy="3" input="SourceAlpha"/><feGaussianBlur stdDeviation="4" result="b"/><feFlood flood-opacity="0.161"/><feComposite operator="in" in2="b"/><feComposite in="SourceGraphic"/></filter></defs><g transform="translate(-297.813 -204.836)"><g transform="matrix(1, 0, 0, 1, 297.81, 204.84)" filter="url(#a)"><path d="M421.626,213.836H318.816a12.04,12.04,0,0,0-12,12.005V397.492a12.038,12.038,0,0,0,12,12H454.054a12.037,12.037,0,0,0,12-12V258.267Z" transform="translate(-297.81 -204.84)" fill="#fd9c24"/></g><path d="M306.812,288.57V397.492a12.038,12.038,0,0,0,12,12H454.054a12.037,12.037,0,0,0,12-12V288.57Z" fill="#f1f1f1"/><path d="M421.683,213.836l-2.3,42.279a7.893,7.893,0,0,0,7.871,7.87l38.783-5.735v-.056Z" fill="#1a1818" opacity="0.15"/><path d="M421.683,213.836l-.057,36.544a7.893,7.893,0,0,0,7.871,7.87H466.04v-.056Z" fill="#ffaf4e"/><path d="M336.957,241.861h3.3v14.031a5.645,5.645,0,0,1-1.762,4.379,6.445,6.445,0,0,1-4.529,1.613,7.017,7.017,0,0,1-4.7-1.477,5.192,5.192,0,0,1-1.668-4.324l.028-.083H330.8a3.228,3.228,0,0,0,.834,2.458,3.264,3.264,0,0,0,2.325.783,2.813,2.813,0,0,0,2.149-.908,3.448,3.448,0,0,0,.847-2.452Z" fill="#fff"/><path d="M354.86,256.514a2.528,2.528,0,0,0-.915-2.011,8.627,8.627,0,0,0-3.234-1.4,13.67,13.67,0,0,1-5.091-2.3,4.576,4.576,0,0,1-1.783-3.748,4.786,4.786,0,0,1,1.973-3.931,8.007,8.007,0,0,1,5.091-1.546,7.571,7.571,0,0,1,5.226,1.756,5.236,5.236,0,0,1,1.9,4.209l-.027.082h-3.159a3.182,3.182,0,0,0-1.03-2.461,4.212,4.212,0,0,0-2.943-.943A4.307,4.307,0,0,0,348.1,245a2.493,2.493,0,0,0-.969,2.029,2.216,2.216,0,0,0,1.051,1.867,11.64,11.64,0,0,0,3.477,1.407,11.581,11.581,0,0,1,4.84,2.359,4.954,4.954,0,0,1,1.654,3.836,4.63,4.63,0,0,1-1.973,3.925,8.512,8.512,0,0,1-5.186,1.457,9.164,9.164,0,0,1-5.422-1.646,5.057,5.057,0,0,1-2.264-4.5l.027-.081h3.172a3.085,3.085,0,0,0,1.247,2.691,5.464,5.464,0,0,0,3.24.888,4.786,4.786,0,0,0,2.848-.736A2.33,2.33,0,0,0,354.86,256.514Z" fill="#fff"/><path d="M374.945,377.36c-8.762-.322-12.692-3.731-12.692-10.93v-7.17c0-4.918-3.588-7.457-7.349-7.961v-4.324c3.761-.5,7.349-3.043,7.349-7.961v-7.17c0-7.2,3.93-10.607,12.692-10.929v4.126c-4.825.577-7.76,3.4-7.76,7.573v6.435c0,4.436-1.617,7.393-4.8,8.789l-2.963,1.3,2.961,1.3c3.188,1.4,4.8,4.356,4.8,8.791v6.436c0,4.179,2.935,7,7.76,7.572Zm22.984-4.127c4.824-.574,7.76-3.393,7.76-7.572v-6.436c0-4.435,1.615-7.392,4.8-8.791l2.96-1.3-2.962-1.3c-3.186-1.4-4.8-4.353-4.8-8.789v-6.435c0-4.178-2.938-7-7.76-7.573v-4.126c8.76.322,12.689,3.73,12.689,10.929v7.17c0,4.918,3.588,7.457,7.352,7.961V351.3c-3.764.5-7.352,3.043-7.352,7.961v7.17c0,7.2-3.929,10.608-12.689,10.93ZM385.3,366.28a8.059,8.059,0,0,0,2.342-5.42v-1.418h-3.744V353.6h6.271V358A8.924,8.924,0,0,1,385.3,366.28Zm-1.4-25.121v-6.285h6.271v6.285Z" fill="#fff"/><path d="M374.945,375.694c-8.762-.322-12.692-3.732-12.692-10.931v-7.17c0-4.918-3.588-7.456-7.349-7.96v-4.325c3.761-.5,7.349-3.043,7.349-7.961v-7.17c0-7.2,3.93-10.606,12.692-10.928v4.126c-4.825.577-7.76,3.395-7.76,7.573v6.435c0,4.436-1.617,7.393-4.8,8.789l-2.963,1.3,2.961,1.3c3.188,1.4,4.8,4.355,4.8,8.79v6.436c0,4.179,2.935,7,7.76,7.572Zm22.984-4.128c4.824-.574,7.76-3.393,7.76-7.572v-6.436c0-4.435,1.615-7.392,4.8-8.79l2.96-1.3-2.962-1.3c-3.186-1.4-4.8-4.353-4.8-8.789v-6.435c0-4.178-2.938-7-7.76-7.573v-4.126c8.76.322,12.689,3.73,12.689,10.928v7.17c0,4.918,3.588,7.457,7.352,7.961v4.325c-3.764.5-7.352,3.042-7.352,7.96v7.17c0,7.2-3.929,10.609-12.689,10.931ZM385.3,364.613a8.057,8.057,0,0,0,2.342-5.42v-1.417h-3.744V351.93h6.271v4.4A8.923,8.923,0,0,1,385.3,364.613Zm-1.4-25.12v-6.285h6.271v6.285Z" fill="#9a9dab"/></g></svg>