<svg xmlns="http://www.w3.org/2000/svg" width="885" height="342" viewBox="0 0 885 342">
  <g id="Group_324" data-name="Group 324" transform="translate(-518 -293)">
    <g id="MarvelLogo" transform="translate(2327.19 111.608)">
      <g id="Group_270" data-name="Group 270" transform="translate(-1769.355 204.535)">
        <path id="Path_173" data-name="Path 173" d="M518.766-1.306V-54.425H370.954l-24.309,177.46L322.591-54.424h-53.3l5.971,47.352C269.1-19.2,247.279-54.424,199.252-54.424c-.316-.021-53.376,0-53.376,0l-.2,258.662L106.82-54.424l-69.81-.041L-3.183,213.544l.021-267.971H-69.974L-94.06,96.115l-23.461-150.54h-66.834v291.37h52.63V96.506l23.94,140.437H-79.8L-56.2,96.506V236.942H45.262l6.157-44.834h40.85L98.4,236.942l99.612.061h.081v-.061h.124V142.363l12.212-1.779L235.715,237h51.523l-.021-.061h.153L254.194,123.934c16.813-12.436,35.8-44.017,30.744-74.229v-.02c.06.409,31.315,187.443,31.315,187.443l61.278-.186L419.4-27.161v264.1h99.366v-52.4H471.6V117.716h47.167v-53.2H471.6V-1.306ZM57.619,145.9,72.069,21.337l15,124.566ZM210.6,88.386a28.408,28.408,0,0,1-12.385,2.946V-2.39c.072,0,.154-.019.256-.019,4.122-.021,34.853,1.247,34.853,46.368,0,23.6-10.452,38.475-22.724,44.427M624.81,184.5v52.4H527.877V-54.465h52.19V184.5Z" transform="translate(184.355 54.465)" fill="#fff"/>
      </g>
    </g>
    <g id="Rectangle_221" data-name="Rectangle 221" transform="translate(518 293)" fill="none" stroke="#fff" stroke-width="4">
      <rect width="885" height="342" stroke="none"/>
      <rect x="2" y="2" width="881" height="338" fill="none"/>
    </g>
  </g>
</svg>
