<svg xmlns="http://www.w3.org/2000/svg" width="31.338" height="30.555" viewBox="0 0 31.338 30.555"><path d="M10.482,32.6c0,.126-.145.227-.329.227-.208.019-.354-.082-.354-.227,0-.126.145-.227.329-.227C10.317,32.356,10.482,32.457,10.482,32.6Zm-1.965-.284c-.044.126.082.272.272.31A.3.3,0,0,0,9.18,32.5c.038-.126-.082-.272-.272-.329A.324.324,0,0,0,8.517,32.318Zm2.793-.107c-.183.044-.31.164-.291.31.019.126.183.208.373.164s.31-.164.291-.291S11.493,32.192,11.309,32.211ZM15.467,8A15.15,15.15,0,0,0,0,23.416,15.84,15.84,0,0,0,10.709,38.529c.809.145,1.093-.354,1.093-.764,0-.392-.019-2.552-.019-3.879,0,0-4.423.948-5.351-1.883,0,0-.72-1.839-1.756-2.312,0,0-1.447-.992.1-.973a3.335,3.335,0,0,1,2.439,1.63,3.34,3.34,0,0,0,4.606,1.32,3.512,3.512,0,0,1,1.011-2.129c-3.532-.392-7.1-.9-7.1-6.981a4.788,4.788,0,0,1,1.491-3.721,5.969,5.969,0,0,1,.164-4.29c1.32-.411,4.359,1.706,4.359,1.706a14.926,14.926,0,0,1,7.936,0s3.039-2.123,4.359-1.706a5.967,5.967,0,0,1,.164,4.29,4.911,4.911,0,0,1,1.63,3.721c0,6.1-3.721,6.583-7.253,6.981a3.736,3.736,0,0,1,1.074,2.932c0,2.129-.019,4.764-.019,5.282,0,.411.291.91,1.093.764a15.694,15.694,0,0,0,10.6-15.1C31.338,14.653,24.23,8,15.467,8ZM6.141,29.791c-.082.063-.063.208.044.329.1.1.246.145.329.063.082-.063.063-.208-.044-.329C6.369,29.753,6.223,29.709,6.141,29.791Zm-.682-.512c-.044.082.019.183.145.246a.188.188,0,0,0,.272-.044c.044-.082-.019-.183-.145-.246C5.6,29.2,5.5,29.216,5.459,29.279Zm2.047,2.249c-.1.082-.063.272.082.392.145.145.329.164.411.063.082-.082.044-.272-.082-.392C7.778,31.446,7.588,31.427,7.506,31.529Zm-.72-.929c-.1.063-.1.227,0,.373s.272.208.354.145a.288.288,0,0,0,0-.392C7.051,30.581,6.887,30.518,6.786,30.6Z" transform="translate(0 -8)" fill="#d6d6d6"/></svg>