<svg xmlns="http://www.w3.org/2000/svg" xmlns:xlink="http://www.w3.org/1999/xlink" width="183.245" height="219.657" viewBox="0 0 183.245 219.657"><defs><filter id="a" x="0" y="0" width="183.245" height="219.657" filterUnits="userSpaceOnUse"><feOffset dx="3" dy="3" input="SourceAlpha"/><feGaussianBlur stdDeviation="4" result="b"/><feFlood flood-opacity="0.161"/><feComposite operator="in" in2="b"/><feComposite in="SourceGraphic"/></filter></defs><g transform="translate(-420.902 -265.541)"><g transform="matrix(1, 0, 0, 1, 420.9, 265.54)" filter="url(#a)"><path d="M544.715,274.541H441.9a12.039,12.039,0,0,0-12,12.005V458.2a12.038,12.038,0,0,0,12,12H577.144a12.037,12.037,0,0,0,12-12V318.972Z" transform="translate(-420.9 -265.54)" fill="#59b89a"/></g><path d="M429.9,349.274V458.2a12.038,12.038,0,0,0,12,12H577.144a12.037,12.037,0,0,0,12-12V349.274Z" fill="#f1f1f1"/><path d="M544.771,274.541l-2.3,42.277a7.893,7.893,0,0,0,7.87,7.871l38.784-5.734V318.9Z" fill="#1a1818" opacity="0.15"/><path d="M544.771,274.541l-.056,36.543a7.894,7.894,0,0,0,7.871,7.871h36.543V318.9Z" fill="#80c7af"/><path d="M466.364,315.757l.027.081a6.217,6.217,0,0,1-1.945,4.874,7.593,7.593,0,0,1-5.416,1.878,7.323,7.323,0,0,1-5.62-2.325,8.382,8.382,0,0,1-2.162-5.945v-3.756a8.479,8.479,0,0,1,2.135-5.944,7.169,7.169,0,0,1,5.552-2.339,7.872,7.872,0,0,1,5.511,1.837,6.206,6.206,0,0,1,1.959,4.942l-.027.081h-3.186a4.276,4.276,0,0,0-1.078-3.1,4.229,4.229,0,0,0-3.179-1.112,3.788,3.788,0,0,0-3.207,1.6,6.55,6.55,0,0,0-1.186,4.01v3.779a6.486,6.486,0,0,0,1.214,4.036,3.892,3.892,0,0,0,3.274,1.6,4.121,4.121,0,0,0,3.1-1.094,4.274,4.274,0,0,0,1.058-3.1Z" fill="#fff"/><path d="M480.036,317.22a2.522,2.522,0,0,0-.915-2.011,8.613,8.613,0,0,0-3.233-1.4,13.686,13.686,0,0,1-5.091-2.3,4.577,4.577,0,0,1-1.783-3.749,4.787,4.787,0,0,1,1.973-3.931,8.007,8.007,0,0,1,5.091-1.546,7.571,7.571,0,0,1,5.226,1.756,5.241,5.241,0,0,1,1.905,4.21l-.027.081h-3.159a3.18,3.18,0,0,0-1.031-2.461,4.206,4.206,0,0,0-2.941-.942,4.316,4.316,0,0,0-2.773.784,2.493,2.493,0,0,0-.969,2.029,2.216,2.216,0,0,0,1.051,1.867,11.614,11.614,0,0,0,3.477,1.407,11.593,11.593,0,0,1,4.84,2.359,4.956,4.956,0,0,1,1.654,3.837,4.626,4.626,0,0,1-1.973,3.924,8.513,8.513,0,0,1-5.185,1.458,9.158,9.158,0,0,1-5.423-1.647,5.054,5.054,0,0,1-2.264-4.495l.027-.081h3.172a3.085,3.085,0,0,0,1.247,2.691,5.465,5.465,0,0,0,3.241.888,4.792,4.792,0,0,0,2.847-.735A2.333,2.333,0,0,0,480.036,317.22Z" fill="#fff"/><path d="M497.22,317.22a2.522,2.522,0,0,0-.915-2.011,8.6,8.6,0,0,0-3.233-1.4,13.686,13.686,0,0,1-5.091-2.3,4.577,4.577,0,0,1-1.783-3.749,4.787,4.787,0,0,1,1.973-3.931,8.007,8.007,0,0,1,5.091-1.546,7.571,7.571,0,0,1,5.226,1.756,5.241,5.241,0,0,1,1.9,4.21l-.027.081h-3.159a3.18,3.18,0,0,0-1.031-2.461,4.206,4.206,0,0,0-2.941-.942,4.316,4.316,0,0,0-2.773.784,2.493,2.493,0,0,0-.969,2.029,2.216,2.216,0,0,0,1.051,1.867,11.614,11.614,0,0,0,3.477,1.407,11.593,11.593,0,0,1,4.84,2.359,4.956,4.956,0,0,1,1.654,3.837,4.626,4.626,0,0,1-1.973,3.924,8.513,8.513,0,0,1-5.185,1.458,9.159,9.159,0,0,1-5.423-1.647,5.054,5.054,0,0,1-2.264-4.495l.027-.081h3.172a3.085,3.085,0,0,0,1.247,2.691,5.465,5.465,0,0,0,3.241.888,4.792,4.792,0,0,0,2.847-.735A2.331,2.331,0,0,0,497.22,317.22Z" fill="#fff"/><path d="M488.085,392.549v7.17c0,4.917-3.589,7.455-7.351,7.96V412c3.762.505,7.351,3.043,7.351,7.961v7.17c0,7.2,3.928,10.607,12.689,10.929v-4.127c-4.823-.576-7.76-3.393-7.76-7.572V419.93c0-4.436-1.615-7.394-4.8-8.79l-2.963-1.3,2.963-1.3c3.187-1.4,4.8-4.353,4.8-8.788v-6.436c0-4.179,2.937-7,7.76-7.572v-4.128C492.013,381.94,488.085,385.35,488.085,392.549Z" fill="#fff"/><path d="M530.115,399.719v-7.17c0-7.2-3.928-10.609-12.689-10.93v4.128c4.824.575,7.76,3.393,7.76,7.572v6.436c0,4.435,1.616,7.392,4.8,8.788l2.963,1.3-2.963,1.3c-3.186,1.4-4.8,4.354-4.8,8.79v6.435c0,4.179-2.936,7-7.76,7.572v4.127c8.761-.322,12.689-3.731,12.689-10.929v-7.17c0-4.918,3.589-7.456,7.352-7.961v-4.325C533.7,407.174,530.115,404.636,530.115,399.719Z" fill="#fff"/><path d="M488.085,390.882v7.17c0,4.918-3.589,7.456-7.351,7.961v4.325c3.762.5,7.351,3.043,7.351,7.96v7.17c0,7.2,3.928,10.608,12.689,10.929V432.27c-4.823-.576-7.76-3.393-7.76-7.572v-6.435c0-4.436-1.615-7.393-4.8-8.789l-2.963-1.3,2.963-1.3c3.187-1.4,4.8-4.353,4.8-8.789v-6.436c0-4.178,2.937-7,7.76-7.572v-4.128C492.013,380.274,488.085,383.684,488.085,390.882Z" fill="#9a9dab"/><path d="M530.115,398.052v-7.17c0-7.2-3.928-10.608-12.689-10.93v4.128c4.824.575,7.76,3.394,7.76,7.572v6.436c0,4.436,1.616,7.392,4.8,8.789l2.963,1.3-2.963,1.3c-3.186,1.4-4.8,4.354-4.8,8.79V424.7c0,4.179-2.936,7-7.76,7.572V436.4c8.761-.321,12.689-3.73,12.689-10.929V418.3c0-4.917,3.589-7.455,7.352-7.96v-4.325C533.7,405.508,530.115,402.97,530.115,398.052Z" fill="#9a9dab"/></g></svg>