<svg xmlns="http://www.w3.org/2000/svg" xmlns:xlink="http://www.w3.org/1999/xlink" width="184.246" height="220.658" viewBox="0 0 184.246 220.658"><defs><filter id="a" x="0" y="0" width="184.246" height="220.658" filterUnits="userSpaceOnUse"><feOffset dx="3" dy="3" input="SourceAlpha"/><feGaussianBlur stdDeviation="4" result="b"/><feFlood flood-opacity="0.161"/><feComposite operator="in" in2="b"/><feComposite in="SourceGraphic"/></filter></defs><g transform="translate(-180.828 -266.512)"><g transform="matrix(1, 0, 0, 1, 180.83, 266.51)" filter="url(#a)"><path d="M305.142,276.012H202.332a12.04,12.04,0,0,0-12,12.006V459.667a12.039,12.039,0,0,0,12,12H337.57a12.038,12.038,0,0,0,12-12V320.443Z" transform="translate(-180.83 -266.51)" fill="#ee5932" stroke="#d8d8d8" stroke-width="1"/></g><path d="M190.328,350.746V459.667a12.039,12.039,0,0,0,12,12H337.57a12.038,12.038,0,0,0,12-12V350.746Z" fill="#f1f1f1"/><path d="M305.2,276.012l-2.3,42.278a7.893,7.893,0,0,0,7.871,7.87l38.783-5.734v-.057Z" fill="#1a1818" opacity="0.15"/><path d="M305.2,276.012l-.057,36.544a7.893,7.893,0,0,0,7.871,7.87h36.543v-.057Z" fill="#f37851"/><path d="M227.808,323.776h-3.281v-8.419h-8.839v8.419h-3.295V304.037h3.295v8.676h8.839v-8.676h3.281Z" fill="#fff"/><path d="M245.344,306.68h-5.966v17.1h-3.294v-17.1H230.12v-2.643h15.224Z" fill="#fff"/><path d="M251.914,304.037l5.679,15.184h.082l5.694-15.184h4.27v19.739h-3.294v-6.724l.325-8.555-.081-.014-5.857,15.293h-2.209l-5.83-15.252-.081.014.325,8.514v6.724h-3.294V304.037Z" fill="#fff"/><path d="M274.981,321.132h9.069v2.644H271.687V304.037h3.294Z" fill="#fff"/><path d="M257.8,438.934h5.822l19.133-50.315h-5.871Z" fill="#fff"/><path d="M230.136,416.624l23.418,13.159v-5.9l-16.766-9.454,16.766-9.356v-5.918l-23.418,13.16Z" fill="#fff"/><path d="M286.351,399.157v5.916l16.766,9.358-16.766,9.454v5.9l23.42-13.159v-4.307Z" fill="#fff"/><path d="M257.8,437.268h5.822l19.133-50.314h-5.871Z" fill="#9a9dab"/><path d="M230.136,414.957l23.418,13.16v-5.9l-16.766-9.453,16.766-9.357v-5.917L230.136,410.65Z" fill="#9a9dab"/><path d="M286.351,397.491v5.915l16.766,9.359-16.766,9.453v5.9l23.42-13.16V410.65Z" fill="#9a9dab"/></g></svg>